<svg width="34" height="25" viewBox="0 0 34 25" fill="none" xmlns="http://www.w3.org/2000/svg">
<g clip-path="url(#clip0)">
<path d="M5.03919 6.4133L6.93219 4.5203C5.9894 3.77694 5.02685 3.05333 4.03034 2.36367C3.03259 1.67587 2.01324 1.00968 0.927826 0.408936C1.52857 1.49435 2.19476 2.5137 2.88256 3.51145C3.57222 4.50796 4.29583 5.47051 5.03919 6.4133Z" fill="#F7FE13"/>
<path d="M12.7427 9.59177L11.4381 8.36744C10.5576 7.56233 9.66301 6.7708 8.74923 5.99841L6.51728 8.23037C7.28905 9.14414 8.08057 10.0388 8.8863 10.9192L10.0588 12.1689C9.65683 12.577 9.27218 13.0011 8.87766 13.4167C8.46522 13.847 8.07563 14.3002 7.6737 14.7416C7.27114 15.1818 6.8902 15.6437 6.4969 16.0938L8.76961 18.3665C9.2197 17.9738 9.68153 17.5922 10.1217 17.1897C10.5632 16.7877 11.0158 16.3982 11.4467 15.9857C11.8789 15.5751 12.3228 15.1757 12.7458 14.7558L14.0207 13.5019L15.3753 12.1695L14.0207 10.8433L12.7427 9.59177Z" fill="#F7FE13"/>
<path d="M2.67016 21.0399C1.98298 22.0383 1.31679 23.0589 0.717896 24.1455C1.80455 23.5466 2.82452 22.8804 3.82349 22.1933C4.82062 21.5042 5.78379 20.7818 6.72596 20.0379L4.82556 18.1375C4.08157 19.0796 3.35858 20.0428 2.67016 21.0399Z" fill="#F7FE13"/>
<path d="M23.1041 6.4133L24.9971 4.5203C24.0543 3.77694 23.0924 3.05333 22.0959 2.36429C21.0975 1.67587 20.0782 1.00968 18.9928 0.408936C19.5935 1.49435 20.2597 2.5137 20.9475 3.51145C21.6372 4.50796 22.3608 5.47051 23.1041 6.4133Z" fill="#F7FE13"/>
<path d="M32.0857 10.8427L30.8076 9.59177L29.503 8.36744C28.6226 7.56233 27.728 6.7708 26.8142 5.99841L24.5822 8.23037C25.354 9.14414 26.1455 10.0388 26.9513 10.9192L28.1237 12.1689C27.7218 12.577 27.3371 13.0011 26.9426 13.4167C26.5302 13.847 26.1406 14.3002 25.7387 14.7416C25.3361 15.1818 24.9552 15.6437 24.5619 16.0938L26.8346 18.3665C27.2847 17.9738 27.7465 17.5922 28.1867 17.1897C28.6282 16.7877 29.0807 16.3982 29.5117 15.9857C29.9439 15.5751 30.3878 15.1757 30.8107 14.7558L32.0857 13.5019L33.4403 12.1695L32.0857 10.8427Z" fill="#F7FE13"/>
<path d="M20.7345 21.0399C20.0473 22.0383 19.3818 23.0589 18.7829 24.1455C19.8695 23.5466 20.8895 22.8804 21.8885 22.1933C22.8856 21.5042 23.8488 20.7818 24.7909 20.0379L22.8905 18.1375C22.1465 19.0796 21.4236 20.0428 20.7345 21.0399Z" fill="#F7FE13"/>
</g>
<defs>
<clipPath id="clip0">
<rect width="32.7224" height="23.7365" fill="white" transform="translate(0.717896 0.408936)"/>
</clipPath>
</defs>
</svg>
